<svg xmlns="http://www.w3.org/2000/svg" id="Layer_1" x="0" y="0" viewBox="0 0 165 83.5" style="enable-background:new 0 0 165 83.5" xml:space="preserve"><style>.st0{fill:#73cf11}.st2,.st3{fill:#fff}.st3{fill-rule:evenodd;clip-rule:evenodd}</style><g id="Trustpilot_00000119103183768123990280000008484910479658543802_"><g id="Trust-pilot_00000001626566633326651480000011860763571506741126_" transform="translate(.5 .5)"><g id="Trustpilot_x5F_ratings_x5F_4star-RGB-_x28_1_x29__00000092428616062243645790000004849780241053214363_" transform="translate(2.5 45)"><path id="Rectangle-path_00000079478271822978354980000003326289897872991109_" class="st0" d="M2.1 7.8h29.2v28.7H2.1z"></path><path id="Rectangle-path_00000157300966135490108180000014877331149052033924_" class="st0" d="M33.5 7.8h29.2v28.7H33.5z"></path><path id="Rectangle-path_00000065794252839200988110000007086907102175863486_" class="st0" d="M64.9 7.8h29.2v28.7H64.9z"></path><path id="Rectangle-path_00000041277092703690603460000013879929161896963969_" class="st0" d="M96.3 7.8h29.2v28.7H96.3z"></path><path id="Rectangle-path_00000155121846577479059790000017650633083587616171_" style="fill:#dcdce6" d="M127.7 7.8h29.2v28.7h-29.2z"></path><path id="Shape_00000173132277434740311450000016829069403242743962_" class="st2" d="m16.7 27.7 4.5-1.1 1.9 5.7-6.4-4.6zM27 20.4h-7.9l-2.4-7.3-2.4 7.3H6.4l6.4 4.5-2.4 7.3 6.4-4.5 3.9-2.8 6.3-4.5z"></path><path id="Shape_00000145057033692210557270000009340931656709425031_" class="st2" d="m48.1 27.7 4.5-1.1 1.9 5.7-6.4-4.6zm10.3-7.3h-7.9l-2.4-7.3-2.4 7.3h-7.9l6.4 4.5-2.4 7.3 6.4-4.5 3.9-2.8 6.3-4.5z"></path><path id="Shape_00000066498479544567490730000008792093407598185406_" class="st2" d="m79.5 27.7 4.5-1.1 1.9 5.7-6.4-4.6zm10.3-7.3h-7.9l-2.4-7.3-2.4 7.3h-7.9l6.4 4.5-2.4 7.3 6.4-4.5 3.9-2.8 6.3-4.5z"></path><path id="Shape_00000065062997842470365430000001360414548534663576_" class="st2" d="m110.9 27.7 4.5-1.1 1.9 5.7-6.4-4.6zm10.3-7.3h-7.9l-2.4-7.3-2.4 7.3h-7.9l6.4 4.5-2.4 7.3 6.4-4.5 3.9-2.8 6.3-4.5z"></path><path id="Rectangle-path_00000090986924071531044750000016462739569349477760_" class="st0" d="M127.7 7.8h14.6v28.7h-14.6z"></path><path id="Shape_00000137118932264714765430000004948650745629955231_" class="st2" d="m142.3 27.7 4.5-1.1 1.9 5.7-6.4-4.6zm10.3-7.3h-7.9l-2.4-7.3-2.4 7.3H132l6.4 4.5-2.4 7.3 6.4-4.5 3.9-2.8 6.3-4.5z"></path></g><g id="Group-6_00000136380277989688947570000005308257213600504732_"><path id="Fill-1_00000152241955357679483110000011054994548105281971_" class="st3" d="M153.7 20.4h2.4v-4.6h3.2v4.6h2.9v2.5h-2.9V32c0 .3.1.5.2.7.1.2.3.3.5.4.2.1.5.1.8.1h.7c.2 0 .5 0 .7-.1v2.6c-.4 0-.7.1-1 .1-.3 0-.7.1-1 .1-.9 0-1.5-.1-2.1-.3-.5-.2-.9-.4-1.2-.7s-.5-.7-.6-1.2c-.1-.5-.2-1.1-.2-1.7v-9h-2.4v-2.6zm-8.3 13.1c.7 0 1.3-.2 1.9-.5.5-.3 1-.7 1.3-1.2.3-.5.6-1.1.8-1.7.2-.6.2-1.3.2-2s-.1-1.3-.2-2c-.2-.7-.4-1.2-.8-1.7-.3-.5-.8-.9-1.3-1.2-.5-.3-1.2-.5-1.9-.5s-1.3.2-1.9.5c-.5.3-1 .7-1.3 1.2s-.6 1.1-.8 1.7c-.2.7-.2 1.3-.2 2s.1 1.3.2 2c.2.6.4 1.2.8 1.7.3.5.8.9 1.3 1.2.6.3 1.2.5 1.9.5zm0 2.6c-1.2 0-2.2-.2-3.1-.6-.9-.4-1.7-1-2.3-1.7-.6-.7-1.1-1.6-1.4-2.5-.3-1-.5-2.1-.5-3.3 0-1.2.2-2.2.5-3.2s.8-1.8 1.4-2.5c.6-.7 1.4-1.3 2.3-1.7.9-.4 2-.6 3.1-.6 1.2 0 2.2.2 3.1.6.9.4 1.7 1 2.3 1.7.6.7 1.1 1.6 1.4 2.5.3 1 .5 2.1.5 3.2 0 1.2-.2 2.3-.5 3.3s-.8 1.8-1.4 2.5c-.6.7-1.4 1.3-2.3 1.7-.9.4-1.9.6-3.1.6zm-13.1-.4h3.2V14.6h-3.2v21.1zm-6.1 0h3.2V20.4h-3.2v15.3zm0-17.9h3.2v-3.2h-3.2v3.2zm-5.7 10.3c0-.7-.1-1.4-.3-2-.2-.7-.4-1.2-.8-1.7-.3-.5-.8-.9-1.3-1.2-.5-.3-1.1-.5-1.8-.5-1.4 0-2.4.5-3.1 1.5-.7 1-1 2.3-1 3.9 0 .8.1 1.5.3 2.1.2.7.4 1.2.8 1.7s.8.8 1.3 1.1c.5.3 1.1.4 1.7.4.7 0 1.4-.2 1.9-.5s.9-.7 1.3-1.2c.3-.5.6-1.1.7-1.7.2-.6.3-1.3.3-1.9zm-11.3-7.7h3.1v2.1h.1c.5-.9 1.1-1.5 1.9-1.9.8-.4 1.7-.6 2.6-.6 1.2 0 2.2.2 3 .6.9.4 1.6 1 2.1 1.7.6.7 1 1.6 1.3 2.6.3 1 .4 2 .4 3.2 0 1-.1 2-.4 3-.3 1-.6 1.8-1.2 2.6-.5.7-1.2 1.3-2 1.8-.8.4-1.7.7-2.8.7-.5 0-.9 0-1.4-.1-.5-.1-.9-.2-1.4-.4-.4-.2-.8-.4-1.2-.8-.4-.3-.7-.7-.9-1.1h-.1v7.6h-3.2v-21zm-10.8 0h2.4v-4.6h3.2v4.6h2.9v2.5H104V32c0 .3.1.5.2.7.1.2.3.3.5.4.2.1.5.1.8.1h.7c.2 0 .5 0 .7-.1v2.6c-.4 0-.7.1-1 .1-.3 0-.7.1-1 .1-.8 0-1.5-.1-2.1-.3-.5-.2-.9-.4-1.2-.7s-.5-.7-.6-1.2c-.1-.5-.2-1.1-.2-1.7v-9h-2.4v-2.6zM87.7 30.8c.1 1 .5 1.7 1.1 2.1.6.4 1.4.6 2.2.6.3 0 .6 0 1-.1.4 0 .8-.1 1.1-.3.3-.1.6-.3.8-.6.2-.3.3-.6.3-1.1 0-.4-.2-.8-.5-1.1-.3-.3-.6-.5-1.1-.7-.4-.2-.9-.3-1.5-.4-.6-.1-1.1-.2-1.7-.4-.6-.1-1.2-.3-1.7-.5-.6-.2-1.1-.5-1.5-.8-.4-.3-.8-.8-1.1-1.3-.3-.5-.4-1.2-.4-1.9 0-.8.2-1.5.6-2.1.4-.6.9-1 1.5-1.4.6-.3 1.3-.6 2-.7.7-.1 1.4-.2 2.1-.2.8 0 1.5.1 2.2.3.7.2 1.3.4 1.9.8.6.4 1 .9 1.4 1.5.4.6.6 1.3.7 2.2h-3.4c-.2-.8-.5-1.4-1.1-1.6-.6-.3-1.2-.4-1.9-.4-.2 0-.5 0-.8.1-.3 0-.6.1-.9.2-.3.1-.5.3-.7.5-.2.2-.3.5-.3.8 0 .4.1.7.4 1 .3.3.6.5 1.1.6.4.2.9.3 1.5.4.6.1 1.2.2 1.8.4.6.1 1.2.3 1.7.5.6.2 1.1.5 1.5.8.4.3.8.8 1.1 1.3.3.5.4 1.1.4 1.9 0 .9-.2 1.7-.6 2.3-.4.6-.9 1.1-1.5 1.5-.6.4-1.3.7-2.1.9-.8.2-1.5.3-2.3.3-.9 0-1.8-.1-2.6-.3-.8-.2-1.5-.5-2-1-.6-.4-1-1-1.4-1.7-.3-.7-.5-1.4-.5-2.4h3.2zm-5.4 4.9h-3.2v-2.1H79c-.4.8-1 1.4-1.8 1.8-.8.5-1.6.7-2.4.7-1.9 0-3.3-.5-4.2-1.5s-1.3-2.5-1.3-4.5v-9.7h3.2v9.4c0 1.3.2 2.3.7 2.8.5.6 1.2.8 2.1.8.7 0 1.2-.1 1.7-.3.5-.2.8-.5 1.1-.9.3-.4.5-.8.6-1.3.1-.5.2-1.1.2-1.7v-8.9h3.2v15.4zM58.9 20.4h3v3h.1c.1-.4.3-.8.6-1.2.3-.4.6-.8 1-1.1.4-.3.8-.6 1.3-.8.5-.2 1-.3 1.4-.3h.8c.1 0 .3 0 .4.1v3.3c-.2 0-.5-.1-.7-.1h-.7c-.5 0-1.1.1-1.5.3-.5.2-.9.6-1.3 1s-.6 1-.8 1.6c-.2.7-.3 1.4-.3 2.2v7.3H59l-.1-15.3zm-15.7-5.8h16.4v3.2h-6.4v17.9h-3.5V17.8h-6.4v-3.2z"></path><g id="Group-5_00000111891265727945572150000003840015547528129458_"><defs><filter id="Adobe_OpacityMaskFilter" filterUnits="userSpaceOnUse" x="1.7" y="1.3" width="38.1" height="37.8"></filter></defs><mask maskUnits="userSpaceOnUse" x="1.7" y="1.3" width="38.1" height="37.8" id="mask-2_00000153688035376646301650000017177813589231578556_"><g style="filter:url(#Adobe_OpacityMaskFilter)"><path id="path-1_00000173160481383801121160000012250479396366633917_" class="st3" d="M1.7 1.3h38.1v37.8H1.7z"></path></g></mask><path id="Fill-3_00000159431460770506367550000011105552083184011906_" d="M39.8 15.8H25.2L20.8 1.3l-4.5 14.4H1.7l11.8 8.9L9 39.1l11.8-8.9 7.3-5.5 11.7-8.9zm-19 14.4 8.3-2.2 3.5 11.2-11.8-9z" style="mask:url(#mask-2_00000153688035376646301650000017177813589231578556_);fill-rule:evenodd;clip-rule:evenodd;fill:#fff"></path></g></g></g></g></svg>